<?xml version="1.0" encoding="UTF-8" standalone="no"?>
<!DOCTYPE svg PUBLIC "-//W3C//DTD SVG 1.1//EN"
 "http://www.w3.org/Graphics/SVG/1.1/DTD/svg11.dtd">
<!-- Generated by graphviz version 2.38.0 (20140413.2041)
 -->
<!-- Title: OpenFiscaDouanes Pages: 1 -->
<svg width="334pt" height="462pt"
 viewBox="0.00 0.00 334.00 462.00" xmlns="http://www.w3.org/2000/svg" xmlns:xlink="http://www.w3.org/1999/xlink">
<g id="graph0" class="graph" transform="scale(1 1) rotate(0) translate(4 458)">
<title>OpenFiscaDouanes</title>
<polygon fill="white" stroke="none" points="-4,4 -4,-458 330,-458 330,4 -4,4"/>
<text text-anchor="middle" x="163" y="-7.8" font-family="Times,serif" font-size="14.00">Architecture du projet OpenFisca douanes</text>
<g id="clust2" class="cluster"><title>cluster_server</title>
<polygon fill="none" stroke="black" stroke-width="2" points="8,-31 8,-329 318,-329 318,-31 8,-31"/>
<text text-anchor="middle" x="163" y="-313.8" font-family="Times,serif" font-size="14.00">Serveur</text>
</g>
<g id="clust6" class="cluster"><title>cluster_clients</title>
<polygon fill="none" stroke="black" points="21,-369 21,-446 199,-446 199,-369 21,-369"/>
<text text-anchor="middle" x="110" y="-430.8" font-family="Times,serif" font-size="14.00">Clients</text>
</g>
<!-- of_web_api -->
<g id="node1" class="node"><title>of_web_api</title>
<path fill="lightgray" stroke="black" d="M135,-298C135,-298 33,-298 33,-298 27,-298 21,-292 21,-286 21,-286 21,-274 21,-274 21,-268 27,-262 33,-262 33,-262 135,-262 135,-262 141,-262 147,-268 147,-274 147,-274 147,-286 147,-286 147,-292 141,-298 135,-298"/>
<text text-anchor="middle" x="84" y="-276.3" font-family="Times,serif" font-size="14.00">API web OpenFisca</text>
</g>
<!-- of_france -->
<g id="node2" class="node"><title>of_france</title>
<path fill="lightgray" stroke="black" d="M120,-149C120,-149 28,-149 28,-149 22,-149 16,-143 16,-137 16,-137 16,-125 16,-125 16,-119 22,-113 28,-113 28,-113 120,-113 120,-113 126,-113 132,-119 132,-125 132,-125 132,-137 132,-137 132,-143 126,-149 120,-149"/>
<text text-anchor="middle" x="74" y="-127.3" font-family="Times,serif" font-size="14.00">OpenFisca&#45;France</text>
</g>
<!-- of_web_api&#45;&gt;of_france -->
<g id="edge5" class="edge"><title>of_web_api&#45;&gt;of_france</title>
<path fill="none" stroke="black" d="M64.5196,-261.528C55.1707,-251.815 44.9459,-238.9 40,-225 34.3383,-209.088 35.384,-203.246 40,-187 42.9455,-176.634 48.4631,-166.308 54.2096,-157.449"/>
<polygon fill="black" stroke="black" points="57.1487,-159.353 59.9455,-149.134 51.3865,-155.378 57.1487,-159.353"/>
</g>
<!-- of_ext_douanes -->
<g id="node7" class="node"><title>of_ext_douanes</title>
<path fill="none" stroke="black" d="M156.5,-225C156.5,-225 61.5,-225 61.5,-225 55.5,-225 49.5,-219 49.5,-213 49.5,-213 49.5,-199 49.5,-199 49.5,-193 55.5,-187 61.5,-187 61.5,-187 156.5,-187 156.5,-187 162.5,-187 168.5,-193 168.5,-199 168.5,-199 168.5,-213 168.5,-213 168.5,-219 162.5,-225 156.5,-225"/>
<text text-anchor="middle" x="109" y="-209.8" font-family="Times,serif" font-size="14.00">Extension douanes</text>
<text text-anchor="middle" x="109" y="-194.8" font-family="Times,serif" font-size="14.00">OpenFisca</text>
</g>
<!-- of_web_api&#45;&gt;of_ext_douanes -->
<g id="edge6" class="edge"><title>of_web_api&#45;&gt;of_ext_douanes</title>
<path fill="none" stroke="black" d="M89.9247,-261.937C92.7452,-253.814 96.1903,-243.892 99.3727,-234.727"/>
<polygon fill="black" stroke="black" points="102.707,-235.794 102.681,-225.199 96.0943,-233.498 102.707,-235.794"/>
</g>
<!-- of_core -->
<g id="node3" class="node"><title>of_core</title>
<path fill="lightgray" stroke="black" d="M171.5,-75C171.5,-75 90.5,-75 90.5,-75 84.5,-75 78.5,-69 78.5,-63 78.5,-63 78.5,-51 78.5,-51 78.5,-45 84.5,-39 90.5,-39 90.5,-39 171.5,-39 171.5,-39 177.5,-39 183.5,-45 183.5,-51 183.5,-51 183.5,-63 183.5,-63 183.5,-69 177.5,-75 171.5,-75"/>
<text text-anchor="middle" x="131" y="-53.3" font-family="Times,serif" font-size="14.00">OpenFisca&#45;Core</text>
</g>
<!-- of_france&#45;&gt;of_core -->
<g id="edge7" class="edge"><title>of_france&#45;&gt;of_core</title>
<path fill="none" stroke="black" d="M87.5082,-112.937C94.504,-104.1 103.184,-93.1354 110.946,-83.3311"/>
<polygon fill="black" stroke="black" points="113.73,-85.4536 117.193,-75.4407 108.242,-81.1087 113.73,-85.4536"/>
</g>
<!-- mobile_app -->
<g id="node4" class="node"><title>mobile_app</title>
<path fill="none" stroke="black" d="M97,-415C97,-415 41,-415 41,-415 35,-415 29,-409 29,-403 29,-403 29,-389 29,-389 29,-383 35,-377 41,-377 41,-377 97,-377 97,-377 103,-377 109,-383 109,-389 109,-389 109,-403 109,-403 109,-409 103,-415 97,-415"/>
<text text-anchor="middle" x="69" y="-399.8" font-family="Times,serif" font-size="14.00">Application</text>
<text text-anchor="middle" x="69" y="-384.8" font-family="Times,serif" font-size="14.00">mobile</text>
</g>
<!-- mobile_app&#45;&gt;of_web_api -->
<g id="edge8" class="edge"><title>mobile_app&#45;&gt;of_web_api</title>
<path fill="none" stroke="black" stroke-dasharray="1,5" d="M71.3768,-376.936C73.8078,-358.46 77.6145,-329.53 80.4123,-308.266"/>
<polygon fill="black" stroke="black" points="83.898,-308.604 81.7325,-298.233 76.9578,-307.691 83.898,-308.604"/>
</g>
<!-- organigrammes_yaml -->
<g id="node5" class="node"><title>organigrammes_yaml</title>
<polygon fill="none" stroke="black" points="309.5,-225 306.5,-229 285.5,-229 282.5,-225 204.5,-225 204.5,-187 309.5,-187 309.5,-225"/>
<text text-anchor="middle" x="257" y="-209.8" font-family="Times,serif" font-size="14.00">Organigrammes</text>
<text text-anchor="middle" x="257" y="-194.8" font-family="Times,serif" font-size="14.00">YAML</text>
</g>
<!-- categories_yaml -->
<g id="node6" class="node"><title>categories_yaml</title>
<polygon fill="none" stroke="black" points="309.5,-150 306.5,-154 285.5,-154 282.5,-150 170.5,-150 170.5,-112 309.5,-112 309.5,-150"/>
<text text-anchor="middle" x="240" y="-134.8" font-family="Times,serif" font-size="14.00">Catégories de produits</text>
<text text-anchor="middle" x="240" y="-119.8" font-family="Times,serif" font-size="14.00">YAML</text>
</g>
<!-- of_ext_douanes&#45;&gt;of_france -->
<g id="edge1" class="edge"><title>of_ext_douanes&#45;&gt;of_france</title>
<path fill="none" stroke="black" d="M100.348,-186.955C96.2187,-178.342 91.197,-167.868 86.6497,-158.384"/>
<polygon fill="black" stroke="black" points="89.7905,-156.839 82.3112,-149.335 83.4785,-159.865 89.7905,-156.839"/>
</g>
<!-- of_ext_douanes&#45;&gt;of_core -->
<g id="edge2" class="edge"><title>of_ext_douanes&#45;&gt;of_core</title>
<path fill="none" stroke="black" d="M122.904,-186.76C129.813,-176.543 137.432,-163.226 141,-150 146.763,-128.635 143.43,-103.628 139.121,-85.0833"/>
<polygon fill="black" stroke="black" points="142.474,-84.0695 136.605,-75.2489 135.692,-85.8043 142.474,-84.0695"/>
</g>
<!-- of_ext_douanes&#45;&gt;organigrammes_yaml -->
<g id="edge3" class="edge"><title>of_ext_douanes&#45;&gt;organigrammes_yaml</title>
<path fill="none" stroke="black" d="M168.547,-206C177.156,-206 185.765,-206 194.374,-206"/>
<polygon fill="black" stroke="black" points="194.481,-209.5 204.481,-206 194.481,-202.5 194.481,-209.5"/>
</g>
<!-- of_ext_douanes&#45;&gt;categories_yaml -->
<g id="edge4" class="edge"><title>of_ext_douanes&#45;&gt;categories_yaml</title>
<path fill="none" stroke="black" d="M141.382,-186.955C158.702,-177.303 180.214,-165.316 198.723,-155.002"/>
<polygon fill="black" stroke="black" points="200.505,-158.016 207.536,-150.09 197.097,-151.901 200.505,-158.016"/>
</g>
<!-- web_site -->
<g id="node8" class="node"><title>web_site</title>
<path fill="none" stroke="black" d="M179,-414C179,-414 139,-414 139,-414 133,-414 127,-408 127,-402 127,-402 127,-390 127,-390 127,-384 133,-378 139,-378 139,-378 179,-378 179,-378 185,-378 191,-384 191,-390 191,-390 191,-402 191,-402 191,-408 185,-414 179,-414"/>
<text text-anchor="middle" x="159" y="-392.3" font-family="Times,serif" font-size="14.00">Site web</text>
</g>
<!-- web_site&#45;&gt;of_web_api -->
<g id="edge9" class="edge"><title>web_site&#45;&gt;of_web_api</title>
<path fill="none" stroke="black" stroke-dasharray="1,5" d="M147.609,-377.686C135.147,-358.744 115.049,-328.195 100.782,-306.509"/>
<polygon fill="black" stroke="black" points="103.673,-304.534 95.2523,-298.104 97.8246,-308.381 103.673,-304.534"/>
<text text-anchor="middle" x="164" y="-351" font-family="Times,serif" font-size="10.00">HTTP request</text>
<text text-anchor="middle" x="164" y="-340" font-family="Times,serif" font-size="10.00">JSON payload</text>
</g>
</g>
</svg>
