<?xml version="1.0" encoding="UTF-8" standalone="no"?>
<!DOCTYPE svg PUBLIC "-//W3C//DTD SVG 1.1//EN"
 "http://www.w3.org/Graphics/SVG/1.1/DTD/svg11.dtd">
<!-- Generated by graphviz version 2.38.0 (20140413.2041)
 -->
<!-- Title: OpenFiscaDouanes Pages: 1 -->
<svg width="323pt" height="470pt"
 viewBox="0.00 0.00 323.00 470.00" xmlns="http://www.w3.org/2000/svg" xmlns:xlink="http://www.w3.org/1999/xlink">
<g id="graph0" class="graph" transform="scale(1 1) rotate(0) translate(4 466)">
<title>OpenFiscaDouanes</title>
<polygon fill="white" stroke="none" points="-4,4 -4,-466 319,-466 319,4 -4,4"/>
<text text-anchor="middle" x="157.5" y="-7.8" font-family="Times,serif" font-size="14.00">Architecture du projet OpenFisca douanes</text>
<g id="clust1" class="cluster"><title>cluster_server</title>
<polygon fill="none" stroke="black" stroke-width="2" points="8,-31 8,-337 307,-337 307,-31 8,-31"/>
<text text-anchor="middle" x="157.5" y="-321.8" font-family="Times,serif" font-size="14.00">Serveur</text>
</g>
<g id="clust4" class="cluster"><title>cluster_clients</title>
<polygon fill="none" stroke="black" points="17,-377 17,-454 195,-454 195,-377 17,-377"/>
<text text-anchor="middle" x="106" y="-438.8" font-family="Times,serif" font-size="14.00">Clients</text>
</g>
<!-- douanes_web_api -->
<g id="node1" class="node"><title>douanes_web_api</title>
<path fill="none" stroke="black" d="M123.5,-306C123.5,-306 34.5,-306 34.5,-306 28.5,-306 22.5,-300 22.5,-294 22.5,-294 22.5,-282 22.5,-282 22.5,-276 28.5,-270 34.5,-270 34.5,-270 123.5,-270 123.5,-270 129.5,-270 135.5,-276 135.5,-282 135.5,-282 135.5,-294 135.5,-294 135.5,-300 129.5,-306 123.5,-306"/>
<text text-anchor="middle" x="79" y="-284.3" font-family="Times,serif" font-size="14.00">API web douanes</text>
</g>
<!-- of_web_api -->
<g id="node6" class="node"><title>of_web_api</title>
<path fill="none" stroke="black" d="M130,-223C130,-223 28,-223 28,-223 22,-223 16,-217 16,-211 16,-211 16,-199 16,-199 16,-193 22,-187 28,-187 28,-187 130,-187 130,-187 136,-187 142,-193 142,-199 142,-199 142,-211 142,-211 142,-217 136,-223 130,-223"/>
<text text-anchor="middle" x="79" y="-201.3" font-family="Times,serif" font-size="14.00">API web OpenFisca</text>
</g>
<!-- douanes_web_api&#45;&gt;of_web_api -->
<g id="edge3" class="edge"><title>douanes_web_api&#45;&gt;of_web_api</title>
<path fill="none" stroke="black" d="M79,-269.822C79,-259.19 79,-245.306 79,-233.204"/>
<polygon fill="black" stroke="black" points="82.5001,-233.153 79,-223.153 75.5001,-233.153 82.5001,-233.153"/>
<text text-anchor="middle" x="92" y="-244" font-family="Times,serif" font-size="10.00">WSGI</text>
</g>
<!-- mobile_app -->
<g id="node2" class="node"><title>mobile_app</title>
<path fill="none" stroke="black" d="M93,-423C93,-423 37,-423 37,-423 31,-423 25,-417 25,-411 25,-411 25,-397 25,-397 25,-391 31,-385 37,-385 37,-385 93,-385 93,-385 99,-385 105,-391 105,-397 105,-397 105,-411 105,-411 105,-417 99,-423 93,-423"/>
<text text-anchor="middle" x="65" y="-407.8" font-family="Times,serif" font-size="14.00">Application</text>
<text text-anchor="middle" x="65" y="-392.8" font-family="Times,serif" font-size="14.00">mobile</text>
</g>
<!-- mobile_app&#45;&gt;douanes_web_api -->
<g id="edge5" class="edge"><title>mobile_app&#45;&gt;douanes_web_api</title>
<path fill="none" stroke="black" stroke-dasharray="1,5" d="M67.2183,-384.936C69.4873,-366.46 73.0402,-337.53 75.6515,-316.266"/>
<polygon fill="black" stroke="black" points="79.1386,-316.585 76.8837,-306.233 72.1908,-315.732 79.1386,-316.585"/>
</g>
<!-- nomenclature_xml -->
<g id="node3" class="node"><title>nomenclature_xml</title>
<polygon fill="none" stroke="black" points="299,-149 296,-153 275,-153 272,-149 171,-149 171,-113 299,-113 299,-149"/>
<text text-anchor="middle" x="235" y="-127.3" font-family="Times,serif" font-size="14.00">Nomenclature XML</text>
</g>
<!-- of_ext_douanes -->
<g id="node4" class="node"><title>of_ext_douanes</title>
<path fill="none" stroke="black" d="M123.5,-150C123.5,-150 28.5,-150 28.5,-150 22.5,-150 16.5,-144 16.5,-138 16.5,-138 16.5,-124 16.5,-124 16.5,-118 22.5,-112 28.5,-112 28.5,-112 123.5,-112 123.5,-112 129.5,-112 135.5,-118 135.5,-124 135.5,-124 135.5,-138 135.5,-138 135.5,-144 129.5,-150 123.5,-150"/>
<text text-anchor="middle" x="76" y="-134.8" font-family="Times,serif" font-size="14.00">Extension douanes</text>
<text text-anchor="middle" x="76" y="-119.8" font-family="Times,serif" font-size="14.00">OpenFisca</text>
</g>
<!-- of_ext_douanes&#45;&gt;nomenclature_xml -->
<g id="edge1" class="edge"><title>of_ext_douanes&#45;&gt;nomenclature_xml</title>
<path fill="none" stroke="black" d="M135.625,-131C143.996,-131 152.367,-131 160.739,-131"/>
<polygon fill="black" stroke="black" points="160.95,-134.5 170.95,-131 160.95,-127.5 160.95,-134.5"/>
</g>
<!-- of_france -->
<g id="node5" class="node"><title>of_france</title>
<path fill="none" stroke="black" d="M122,-75C122,-75 30,-75 30,-75 24,-75 18,-69 18,-63 18,-63 18,-51 18,-51 18,-45 24,-39 30,-39 30,-39 122,-39 122,-39 128,-39 134,-45 134,-51 134,-51 134,-63 134,-63 134,-69 128,-75 122,-75"/>
<text text-anchor="middle" x="76" y="-53.3" font-family="Times,serif" font-size="14.00">OpenFisca&#45;France</text>
</g>
<!-- of_ext_douanes&#45;&gt;of_france -->
<g id="edge2" class="edge"><title>of_ext_douanes&#45;&gt;of_france</title>
<path fill="none" stroke="black" d="M76,-111.831C76,-103.894 76,-94.4095 76,-85.6285"/>
<polygon fill="black" stroke="black" points="79.5001,-85.4177 76,-75.4177 72.5001,-85.4177 79.5001,-85.4177"/>
</g>
<!-- of_web_api&#45;&gt;of_ext_douanes -->
<g id="edge4" class="edge"><title>of_web_api&#45;&gt;of_ext_douanes</title>
<path fill="none" stroke="black" d="M78.289,-186.937C77.9578,-178.987 77.5547,-169.313 77.1797,-160.313"/>
<polygon fill="black" stroke="black" points="80.6717,-160.045 76.7583,-150.199 73.6777,-160.336 80.6717,-160.045"/>
</g>
<!-- web_site -->
<g id="node7" class="node"><title>web_site</title>
<path fill="none" stroke="black" d="M175,-422C175,-422 135,-422 135,-422 129,-422 123,-416 123,-410 123,-410 123,-398 123,-398 123,-392 129,-386 135,-386 135,-386 175,-386 175,-386 181,-386 187,-392 187,-398 187,-398 187,-410 187,-410 187,-416 181,-422 175,-422"/>
<text text-anchor="middle" x="155" y="-400.3" font-family="Times,serif" font-size="14.00">Site web</text>
</g>
<!-- web_site&#45;&gt;douanes_web_api -->
<g id="edge6" class="edge"><title>web_site&#45;&gt;douanes_web_api</title>
<path fill="none" stroke="black" stroke-dasharray="1,5" d="M143.457,-385.686C130.829,-366.744 110.463,-336.195 96.0059,-314.509"/>
<polygon fill="black" stroke="black" points="98.8616,-312.483 90.4024,-306.104 93.0372,-316.366 98.8616,-312.483"/>
<text text-anchor="middle" x="160" y="-359" font-family="Times,serif" font-size="10.00">HTTP request</text>
<text text-anchor="middle" x="160" y="-348" font-family="Times,serif" font-size="10.00">JSON payload</text>
</g>
</g>
</svg>
