<?xml version="1.0" encoding="UTF-8" standalone="no"?>
<!DOCTYPE svg PUBLIC "-//W3C//DTD SVG 1.1//EN"
 "http://www.w3.org/Graphics/SVG/1.1/DTD/svg11.dtd">
<!-- Generated by graphviz version 2.38.0 (20140413.2041)
 -->
<!-- Title: OpenFiscaDouanes Pages: 1 -->
<svg width="323pt" height="543pt"
 viewBox="0.00 0.00 323.00 543.00" xmlns="http://www.w3.org/2000/svg" xmlns:xlink="http://www.w3.org/1999/xlink">
<g id="graph0" class="graph" transform="scale(1 1) rotate(0) translate(4 539)">
<title>OpenFiscaDouanes</title>
<polygon fill="white" stroke="none" points="-4,4 -4,-539 319,-539 319,4 -4,4"/>
<text text-anchor="middle" x="157.5" y="-7.8" font-family="Times,serif" font-size="14.00">Architecture du projet OpenFisca douanes</text>
<g id="clust2" class="cluster"><title>cluster_server</title>
<polygon fill="none" stroke="black" stroke-width="2" points="8,-31 8,-410 307,-410 307,-31 8,-31"/>
<text text-anchor="middle" x="157.5" y="-394.8" font-family="Times,serif" font-size="14.00">Serveur</text>
</g>
<g id="clust5" class="cluster"><title>cluster_clients</title>
<polygon fill="none" stroke="black" points="17,-450 17,-527 195,-527 195,-450 17,-450"/>
<text text-anchor="middle" x="106" y="-511.8" font-family="Times,serif" font-size="14.00">Clients</text>
</g>
<!-- of_web_api -->
<g id="node1" class="node"><title>of_web_api</title>
<path fill="lightgray" stroke="black" d="M130,-296C130,-296 28,-296 28,-296 22,-296 16,-290 16,-284 16,-284 16,-272 16,-272 16,-266 22,-260 28,-260 28,-260 130,-260 130,-260 136,-260 142,-266 142,-272 142,-272 142,-284 142,-284 142,-290 136,-296 130,-296"/>
<text text-anchor="middle" x="79" y="-274.3" font-family="Times,serif" font-size="14.00">API web OpenFisca</text>
</g>
<!-- of_ext_douanes -->
<g id="node7" class="node"><title>of_ext_douanes</title>
<path fill="none" stroke="black" d="M123.5,-223C123.5,-223 28.5,-223 28.5,-223 22.5,-223 16.5,-217 16.5,-211 16.5,-211 16.5,-197 16.5,-197 16.5,-191 22.5,-185 28.5,-185 28.5,-185 123.5,-185 123.5,-185 129.5,-185 135.5,-191 135.5,-197 135.5,-197 135.5,-211 135.5,-211 135.5,-217 129.5,-223 123.5,-223"/>
<text text-anchor="middle" x="76" y="-207.8" font-family="Times,serif" font-size="14.00">Extension douanes</text>
<text text-anchor="middle" x="76" y="-192.8" font-family="Times,serif" font-size="14.00">OpenFisca</text>
</g>
<!-- of_web_api&#45;&gt;of_ext_douanes -->
<g id="edge4" class="edge"><title>of_web_api&#45;&gt;of_ext_douanes</title>
<path fill="none" stroke="black" d="M78.289,-259.937C77.9578,-251.987 77.5547,-242.313 77.1797,-233.313"/>
<polygon fill="black" stroke="black" points="80.6717,-233.045 76.7583,-223.199 73.6777,-233.336 80.6717,-233.045"/>
</g>
<!-- of_france -->
<g id="node2" class="node"><title>of_france</title>
<path fill="lightgray" stroke="black" d="M122,-148C122,-148 30,-148 30,-148 24,-148 18,-142 18,-136 18,-136 18,-124 18,-124 18,-118 24,-112 30,-112 30,-112 122,-112 122,-112 128,-112 134,-118 134,-124 134,-124 134,-136 134,-136 134,-142 128,-148 122,-148"/>
<text text-anchor="middle" x="76" y="-126.3" font-family="Times,serif" font-size="14.00">OpenFisca&#45;France</text>
</g>
<!-- of_core -->
<g id="node3" class="node"><title>of_core</title>
<path fill="lightgray" stroke="black" d="M116.5,-75C116.5,-75 35.5,-75 35.5,-75 29.5,-75 23.5,-69 23.5,-63 23.5,-63 23.5,-51 23.5,-51 23.5,-45 29.5,-39 35.5,-39 35.5,-39 116.5,-39 116.5,-39 122.5,-39 128.5,-45 128.5,-51 128.5,-51 128.5,-63 128.5,-63 128.5,-69 122.5,-75 116.5,-75"/>
<text text-anchor="middle" x="76" y="-53.3" font-family="Times,serif" font-size="14.00">OpenFisca&#45;Core</text>
</g>
<!-- of_france&#45;&gt;of_core -->
<g id="edge5" class="edge"><title>of_france&#45;&gt;of_core</title>
<path fill="none" stroke="black" d="M76,-111.813C76,-103.789 76,-94.0475 76,-85.0691"/>
<polygon fill="black" stroke="black" points="79.5001,-85.0288 76,-75.0288 72.5001,-85.0289 79.5001,-85.0288"/>
</g>
<!-- douanes_web_api -->
<g id="node4" class="node"><title>douanes_web_api</title>
<path fill="none" stroke="black" d="M123.5,-379C123.5,-379 34.5,-379 34.5,-379 28.5,-379 22.5,-373 22.5,-367 22.5,-367 22.5,-355 22.5,-355 22.5,-349 28.5,-343 34.5,-343 34.5,-343 123.5,-343 123.5,-343 129.5,-343 135.5,-349 135.5,-355 135.5,-355 135.5,-367 135.5,-367 135.5,-373 129.5,-379 123.5,-379"/>
<text text-anchor="middle" x="79" y="-357.3" font-family="Times,serif" font-size="14.00">API web douanes</text>
</g>
<!-- douanes_web_api&#45;&gt;of_web_api -->
<g id="edge3" class="edge"><title>douanes_web_api&#45;&gt;of_web_api</title>
<path fill="none" stroke="black" d="M79,-342.822C79,-332.19 79,-318.306 79,-306.204"/>
<polygon fill="black" stroke="black" points="82.5001,-306.153 79,-296.153 75.5001,-306.153 82.5001,-306.153"/>
<text text-anchor="middle" x="92" y="-317" font-family="Times,serif" font-size="10.00">WSGI</text>
</g>
<!-- mobile_app -->
<g id="node5" class="node"><title>mobile_app</title>
<path fill="none" stroke="black" d="M93,-496C93,-496 37,-496 37,-496 31,-496 25,-490 25,-484 25,-484 25,-470 25,-470 25,-464 31,-458 37,-458 37,-458 93,-458 93,-458 99,-458 105,-464 105,-470 105,-470 105,-484 105,-484 105,-490 99,-496 93,-496"/>
<text text-anchor="middle" x="65" y="-480.8" font-family="Times,serif" font-size="14.00">Application</text>
<text text-anchor="middle" x="65" y="-465.8" font-family="Times,serif" font-size="14.00">mobile</text>
</g>
<!-- mobile_app&#45;&gt;douanes_web_api -->
<g id="edge6" class="edge"><title>mobile_app&#45;&gt;douanes_web_api</title>
<path fill="none" stroke="black" stroke-dasharray="1,5" d="M67.2183,-457.936C69.4873,-439.46 73.0402,-410.53 75.6515,-389.266"/>
<polygon fill="black" stroke="black" points="79.1386,-389.585 76.8837,-379.233 72.1908,-388.732 79.1386,-389.585"/>
</g>
<!-- nomenclature_xml -->
<g id="node6" class="node"><title>nomenclature_xml</title>
<polygon fill="none" stroke="black" points="299,-222 296,-226 275,-226 272,-222 171,-222 171,-186 299,-186 299,-222"/>
<text text-anchor="middle" x="235" y="-200.3" font-family="Times,serif" font-size="14.00">Nomenclature XML</text>
</g>
<!-- of_ext_douanes&#45;&gt;of_france -->
<g id="edge1" class="edge"><title>of_ext_douanes&#45;&gt;of_france</title>
<path fill="none" stroke="black" d="M76,-184.831C76,-176.894 76,-167.409 76,-158.628"/>
<polygon fill="black" stroke="black" points="79.5001,-158.418 76,-148.418 72.5001,-158.418 79.5001,-158.418"/>
</g>
<!-- of_ext_douanes&#45;&gt;nomenclature_xml -->
<g id="edge2" class="edge"><title>of_ext_douanes&#45;&gt;nomenclature_xml</title>
<path fill="none" stroke="black" d="M135.625,-204C143.996,-204 152.367,-204 160.739,-204"/>
<polygon fill="black" stroke="black" points="160.95,-207.5 170.95,-204 160.95,-200.5 160.95,-207.5"/>
</g>
<!-- web_site -->
<g id="node8" class="node"><title>web_site</title>
<path fill="none" stroke="black" d="M175,-495C175,-495 135,-495 135,-495 129,-495 123,-489 123,-483 123,-483 123,-471 123,-471 123,-465 129,-459 135,-459 135,-459 175,-459 175,-459 181,-459 187,-465 187,-471 187,-471 187,-483 187,-483 187,-489 181,-495 175,-495"/>
<text text-anchor="middle" x="155" y="-473.3" font-family="Times,serif" font-size="14.00">Site web</text>
</g>
<!-- web_site&#45;&gt;douanes_web_api -->
<g id="edge7" class="edge"><title>web_site&#45;&gt;douanes_web_api</title>
<path fill="none" stroke="black" stroke-dasharray="1,5" d="M143.457,-458.686C130.829,-439.744 110.463,-409.195 96.0059,-387.509"/>
<polygon fill="black" stroke="black" points="98.8616,-385.483 90.4024,-379.104 93.0372,-389.366 98.8616,-385.483"/>
<text text-anchor="middle" x="160" y="-432" font-family="Times,serif" font-size="10.00">HTTP request</text>
<text text-anchor="middle" x="160" y="-421" font-family="Times,serif" font-size="10.00">JSON payload</text>
</g>
</g>
</svg>
